# Blender 4.2.1 LTS
# www.blender.org
mtllib mcl_head.mtl
g Cube.002_Cube.002
v -0.250000 -0.500000 0.250000
v -0.250000 0.000000 0.250000
v -0.250000 -0.500000 -0.250000
v -0.250000 -0.000000 -0.250000
v 0.250000 -0.500000 0.250000
v 0.250000 0.000000 0.250000
v 0.250000 -0.500000 -0.250000
v 0.250000 0.000000 -0.250000
vn -1.0000 -0.0000 -0.0000
vn -0.0000 -0.0000 -1.0000
vn 1.0000 -0.0000 -0.0000
vn -0.0000 -0.0000 1.0000
vn -0.0000 -1.0000 -0.0000
vn -0.0000 1.0000 -0.0000
vt 0.875000 0.500000
vt 0.875000 0.750000
vt 0.750000 0.750000
vt 0.750000 0.500000
vt 0.625000 0.750000
vt 0.625000 0.500000
vt 0.500000 0.750000
vt 0.500000 0.500000
vt 1.000000 0.500000
vt 1.000000 0.750000
vt 0.875000 1.000000
vt 0.750000 1.000000
vt 0.625000 1.000000
s 0
g off
g Cube.002_Material.002
usemtl Material.002
f 1/1/1 2/2/1 4/3/1 3/4/1
f 3/4/2 4/3/2 8/5/2 7/6/2
f 7/6/3 8/5/3 6/7/3 5/8/3
f 5/9/4 6/10/4 2/2/4 1/1/4
f 3/2/5 7/11/5 5/12/5 1/3/5
f 8/5/6 4/3/6 2/12/6 6/13/6
