# Blender 3.6.7
# www.blender.org
o Cube_Cube.001
v -8.000000 0.400003 -0.400001
v -8.000000 -0.399997 -0.400001
v -8.000000 0.400003 0.400000
v -8.000000 -0.399997 0.400000
v -9.599998 -0.399997 0.400000
v -9.599998 0.400003 0.400000
v -9.599998 -0.399997 -0.400001
v -9.599998 0.400003 -0.400001
v -8.000000 -0.399997 -1.200001
v -8.000000 0.400003 -1.200001
v -8.000000 -0.399998 1.199999
v -8.000000 0.400003 1.199999
v -8.799999 -0.399997 -1.200001
v -8.799999 -0.399997 1.199999
v -8.799999 0.400003 1.199999
v -8.799999 0.400003 -1.200001
v -9.599998 -0.399997 1.199999
v -9.599998 0.400003 1.199999
v -9.599998 -0.399997 -1.200001
v -9.599998 0.400003 -1.200001
v -8.799999 -0.399997 1.999999
v -8.799999 0.400003 1.999999
v -8.799999 -0.399997 -2.000001
v -8.799999 0.400003 -2.000001
v -13.599998 -0.399996 0.399999
v -13.599998 0.400004 0.399999
v -13.599998 -0.399996 -0.400001
v -13.599998 0.400004 -0.400001
v -12.799997 -0.399996 1.199999
v -12.799997 0.400004 1.199999
v -12.799997 -0.399996 1.999999
v -12.799997 0.400004 1.999999
v -12.799999 -0.399996 -1.200001
v -12.799999 0.400004 -1.200001
v -12.799999 -0.399996 -2.000001
v -12.799999 0.400004 -2.000001
v 12.000000 0.399996 -0.399999
v 11.999999 -0.400004 -0.399999
v 11.999999 0.399996 0.400001
v 12.000000 -0.400004 0.400001
vn 1.0000 -0.0000 -0.0000
vn -0.0000 -0.0000 -1.0000
vn -0.0000 -0.0000 1.0000
vn -1.0000 -0.0000 -0.0000
vn -0.0000 -1.0000 -0.0000
vn -0.0000 1.0000 -0.0000
vt 0.437500 0.031250
vt 0.437500 0.000000
vt 0.468750 0.000000
vt 0.468750 0.031250
vt 0.468750 0.312500
vt 0.468750 0.343750
vt 0.437500 0.343750
vt 0.437500 0.312500
vt 0.437500 0.375000
vt 0.468750 0.375000
vt 0.437500 0.062500
vt 0.468750 0.062500
vt 0.468750 0.093750
vt 0.437500 0.093750
vt 0.468750 0.125000
vt 0.437500 0.125000
vt 0.375000 0.312500
vt 0.375000 0.156250
vt 0.406250 0.156250
vt 0.406250 0.312500
vt 0.468750 0.156250
vt 0.437500 0.156250
vt 0.468750 0.187500
vt 0.437500 0.187500
vt 0.468750 0.218750
vt 0.437500 0.218750
vt 0.468750 0.250000
vt 0.437500 0.250000
vt 0.468750 0.281250
vt 0.437500 0.281250
vt 0.406250 0.437500
vt 0.375000 0.437500
vt 0.343750 0.000000
vt 0.375000 0.000000
vt 0.375000 0.781250
vt 0.343750 0.781250
vt 0.312500 0.781250
vt 0.312500 0.000000
vt 0.093750 0.781250
vt 0.125000 0.781250
vt 0.125000 0.812500
vt 0.156250 0.812500
vt 0.156250 0.968750
vt 0.125000 0.968750
vt 0.125000 0.843750
vt 0.093750 0.843750
vt 0.093750 1.000000
vt 0.062500 1.000000
vt 0.062500 0.843750
vt 0.031250 0.843750
vt 0.031250 0.968750
vt 0.000000 0.968750
vt 0.000000 0.812500
vt 0.031250 0.812500
vt 0.031250 0.781250
vt 0.062500 0.781250
vt 0.062500 0.000000
vt 0.093750 0.000000
vt 0.406250 0.000000
vt 0.437500 0.437500
vt 0.218750 0.000000
vt 0.250000 0.000000
vt 0.250000 0.781250
vt 0.281250 0.781250
vt 0.281250 0.812500
vt 0.312500 0.812500
vt 0.312500 0.968750
vt 0.281250 0.968750
vt 0.281250 0.843750
vt 0.250000 0.843750
vt 0.250000 1.000000
vt 0.218750 1.000000
vt 0.218750 0.843750
vt 0.187500 0.843750
vt 0.187500 0.968750
vt 0.187500 0.812500
vt 0.187500 0.781250
vt 0.218750 0.781250
s 1
f 4/1/1 3/2/1 12/3/1 11/4/1
f 10/5/2 9/6/2 13/7/2 16/8/2
f 11/9/3 12/7/3 15/6/3 14/10/3
f 7/11/4 8/1/4 20/4/4 19/12/4
f 1/12/1 2/13/1 9/14/1 10/11/1
f 6/13/4 5/15/4 17/16/4 18/14/4
f 23/17/2 35/18/2 36/19/2 24/20/2
f 14/16/1 15/15/1 22/21/1 21/22/1
f 16/23/1 13/24/1 23/22/1 24/21/1
f 28/23/4 27/25/4 25/26/4 26/24/4
f 30/27/4 29/28/4 31/26/4 32/25/4
f 33/28/4 34/27/4 36/29/4 35/30/4
f 34/31/3 33/32/3 19/17/3 20/20/3
f 40/33/3 39/34/3 3/35/3 4/36/3
f 38/33/2 2/36/2 1/37/2 37/38/2
f 4/39/5 11/40/5 14/41/5 21/42/5 31/43/5 29/44/5 17/45/5 5/46/5 25/47/5 27/48/5 7/49/5 19/50/5 33/51/5 35/52/5 23/53/5 13/54/5 9/55/5 2/56/5 38/57/5 40/58/5
f 38/8/1 37/30/1 39/29/1 40/5/1
f 27/59/2 28/2/2 8/22/2 7/19/2
f 32/8/3 31/20/3 21/19/3 22/22/3
f 17/31/2 29/20/2 30/8/2 18/60/2
f 39/61/6 37/62/6 1/63/6 10/64/6 16/65/6 24/66/6 36/67/6 34/68/6 20/69/6 8/70/6 28/71/6 26/72/6 6/73/6 18/74/6 30/75/6 32/43/6 22/42/6 15/76/6 12/77/6 3/78/6
f 26/19/3 25/18/3 5/34/3 6/59/3
