# Blender 4.0.2
# www.blender.org
o leg_left
v -1.200000 7.000000 -1.300000
v 1.200000 -0.000000 1.300001
v 1.200000 -0.000000 -1.299999
v -1.200000 -0.000000 -1.299999
v 1.400000 -0.099999 1.500001
v -1.200000 7.000000 1.300000
v -1.400000 3.475000 -1.500000
v 1.400000 3.475000 -1.500000
v -1.400000 3.475000 1.500000
v 1.200000 7.000000 1.300000
v 1.400000 -0.100001 -1.499999
v 1.400000 3.475000 1.500000
v 1.200000 7.000000 -1.300000
v -1.400000 -0.099999 1.500001
v -1.200000 -0.000000 1.300001
v -1.400000 -0.100001 -1.499999
vn -0.0000 1.0000 -0.0000
vn 1.0000 -0.0000 -0.0000
vn -0.0000 -0.0000 -1.0000
vn -0.0000 -0.0000 1.0000
vn -1.0000 -0.0000 -0.0000
vn -0.0000 -1.0000 -0.0000
vt 0.125000 0.375000
vt 0.125000 0.500000
vt 0.062500 0.500000
vt 0.062500 0.375000
vt 0.187500 0.375000
vt 0.125000 0.000000
vt 0.187500 0.000000
vt 0.062500 0.000000
vt 0.250000 0.375000
vt 0.250000 0.000000
vt 0.000000 0.375000
vt 0.000000 0.000000
vt 0.187500 0.500000
vt 0.390625 0.839844
vt 0.390625 0.871094
vt 0.375000 0.871094
vt 0.375000 0.839844
vt 0.343750 0.839844
vt 0.359375 0.839844
vt 0.359375 0.785156
vt 0.343750 0.785156
vt 0.406250 0.839844
vt 0.390625 0.785156
vt 0.406250 0.785156
vt 0.375000 0.785156
vt 0.359375 0.871094
s 0
f 1/1/1 6/2/1 10/3/1 13/4/1
f 13/5/2 10/1/2 2/6/2 3/7/2
f 1/1/3 13/4/3 3/8/3 4/6/3
f 10/9/4 6/5/4 15/7/4 2/10/4
f 6/11/5 1/4/5 4/8/5 15/12/5
f 3/5/6 2/13/6 15/2/6 4/1/6
f 11/14/6 5/15/6 14/16/6 16/17/6
f 9/18/5 7/19/5 16/20/5 14/21/5
f 12/22/4 9/14/4 14/23/4 5/24/4
f 7/17/3 8/19/3 11/20/3 16/25/3
f 8/14/2 12/17/2 5/25/2 11/23/2
f 7/17/1 9/16/1 12/26/1 8/19/1
