# Blender v2.91.0 OBJ File: ''
# www.blender.org
mtllib mcl_bows_arrow.mtl
o Plane
v -3.782006 -1.443249 0.000500
v -3.782006 1.444249 0.000500
v 3.782006 1.444249 0.000500
v 3.782006 -1.443249 0.000500
v 3.331104 1.069925 1.085017
v 3.331104 -1.100076 1.085017
v 3.331104 1.069925 -1.064830
v 3.331104 -1.100076 -1.064829
v 3.782006 0.001000 1.443749
v 3.782006 0.001000 -1.443750
v -3.782006 0.001000 -1.443749
v -3.782006 0.001000 1.443750
v 3.782006 0.000000 -1.443750
v 3.782006 0.000000 1.443749
v -3.782006 0.000000 1.443750
v -3.782006 0.000000 -1.443749
v 3.782006 1.444249 -0.000500
v 3.782006 -1.443249 -0.000500
v -3.782006 -1.443249 -0.000500
v -3.782006 1.444249 -0.000500
vt 0.000000 0.300000
vt 0.000000 0.700000
vt 1.000000 0.700000
vt 1.000000 0.300000
vt -0.007553 -0.000373
vt 0.296712 -0.000373
vt 0.296712 0.298611
vt -0.007553 0.298611
vt 0.000000 0.300000
vt 1.000000 0.300000
vt 1.000000 0.700000
vt 0.000000 0.700000
vt 0.000000 0.300000
vt 1.000000 0.300000
vt 1.000000 0.700000
vt 0.000000 0.700000
vt 0.000000 0.300000
vt 0.000000 0.700000
vt 1.000000 0.700000
vt 1.000000 0.300000
vn -0.0000 -0.0000 -1.0000
vn 1.0000 -0.0000 0.0000
vn 0.0000 1.0000 0.0000
vn 0.0000 0.0000 1.0000
vn 0.0000 -1.0000 0.0000
usemtl Material.002
s off
f 17/1/1 18/2/1 19/3/1 20/4/1
f 8/5/2 7/6/2 5/7/2 6/8/2
f 10/9/3 11/10/3 12/11/3 9/12/3
f 3/13/4 2/14/4 1/15/4 4/16/4
f 13/17/5 14/18/5 15/19/5 16/20/5
