# Blender 3.6.7
# www.blender.org
mtllib mcl_clover_4leaf.mtl
o Plane
v -0.250000 -0.280000 0.250000
v 0.250000 -0.280000 0.250000
v -0.250000 -0.280000 -0.250000
v 0.250000 -0.280000 -0.250000
v 0.035355 -0.500000 0.035355
v 0.035355 -0.300000 0.035355
v -0.035355 -0.500000 -0.035355
v -0.035355 -0.300000 -0.035355
v 0.035355 -0.500000 -0.035355
v 0.035355 -0.300000 -0.035355
v -0.035355 -0.500000 0.035355
v -0.035355 -0.300000 0.035355
vn -0.0000 1.0000 -0.0000
vn -0.7071 -0.0000 0.7071
vn 0.7071 -0.0000 0.7071
vt 0.000000 0.125000
vt 0.875000 0.125000
vt 0.875000 1.000000
vt 0.000000 1.000000
vt 0.875000 0.000000
vt 1.000000 0.000000
vt 1.000000 0.375000
vt 0.875000 0.375000
s 0
usemtl Material.001
f 1/1/1 2/2/1 4/3/1 3/4/1
f 5/5/2 6/6/2 8/7/2 7/8/2
f 9/5/3 10/6/3 12/7/3 11/8/3
