# Blender 3.6.7
# www.blender.org
o hollow_log
v -0.312500 -0.500000 0.312500
v -0.312500 0.500000 0.312500
v -0.312500 -0.500000 -0.312500
v -0.312500 0.500000 -0.312500
v 0.312500 -0.500000 0.312500
v 0.312500 0.500000 0.312500
v 0.312500 -0.500000 -0.312500
v 0.312500 0.500000 -0.312500
v -0.500000 -0.500000 -0.500000
v -0.500000 -0.500000 0.500000
v -0.500000 0.500000 0.500000
v -0.500000 0.500000 -0.500000
v 0.500000 -0.500000 -0.500000
v 0.500000 0.500000 -0.500000
v 0.500000 -0.500000 0.500000
v 0.500000 0.500000 0.500000
vn -1.0000 -0.0000 -0.0000
vn -0.0000 -0.0000 -1.0000
vn 1.0000 -0.0000 -0.0000
vn -0.0000 -0.0000 1.0000
vn -0.0000 -1.0000 -0.0000
vn -0.0000 1.0000 -0.0000
vt 0.380952 0.000000
vt 0.380952 1.000000
vt 0.000000 1.000000
vt 0.000000 0.000000
vt 0.619048 0.000000
vt 0.619048 1.000000
vt 0.928571 0.187500
vt 0.928571 0.812500
vt 1.000000 1.000000
vt 1.000000 -0.000000
vt 0.690476 0.187500
vt 0.690476 0.812500
s 0
f 10/1/1 11/2/1 12/3/1 9/4/1
f 9/1/2 12/2/2 14/3/2 13/4/2
f 13/1/3 14/2/3 16/3/3 15/4/3
f 15/1/4 16/2/4 11/3/4 10/4/4
f 7/5/4 8/6/4 4/2/4 3/1/4
f 5/5/1 6/6/1 8/2/1 7/1/1
f 3/7/5 1/8/5 10/9/5 9/10/5
f 2/8/6 4/7/6 12/10/6 11/9/6
f 7/11/5 3/7/5 9/10/5 13/5/5
f 4/7/6 8/11/6 14/5/6 12/10/6
f 5/12/5 7/11/5 13/5/5 15/6/5
f 8/11/6 6/12/6 16/6/6 14/5/6
f 1/8/5 5/12/5 15/6/5 10/9/5
f 6/12/6 2/8/6 11/9/6 16/6/6
f 3/5/3 4/6/3 2/2/3 1/1/3
f 1/5/2 2/6/2 6/2/2 5/1/2
