# Blender 3.6.7
# www.blender.org
o Cube
v 0.125000 -0.437500 -0.125000
v 0.125000 -0.500000 -0.125000
v 0.125000 -0.437500 0.125000
v 0.125000 -0.500000 0.125000
v -0.125000 -0.437500 -0.125000
v -0.125000 -0.500000 -0.125000
v -0.125000 -0.437500 0.125000
v -0.125000 -0.500000 0.125000
v -0.062500 -0.437500 0.062500
v -0.062500 0.500000 0.062500
v -0.062500 -0.437500 -0.062500
v -0.062500 0.500000 -0.062500
v 0.062500 -0.437500 0.062500
v 0.062500 0.500000 0.062500
v 0.062500 -0.437500 -0.062500
v 0.062500 0.500000 -0.062500
vn -0.0000 1.0000 -0.0000
vn -0.0000 -0.0000 1.0000
vn -1.0000 -0.0000 -0.0000
vn -0.0000 -1.0000 -0.0000
vn 1.0000 -0.0000 -0.0000
vn -0.0000 -0.0000 -1.0000
vt 0.250000 1.000000
vt -0.000000 1.000000
vt -0.000000 0.750000
vt 0.250000 0.750000
vt 0.250000 0.000000
vt 0.250000 0.062500
vt 0.000000 0.062500
vt 0.000000 0.000000
vt 1.000000 0.000000
vt 1.000000 0.062500
vt 0.750000 0.062500
vt 0.750000 0.000000
vt 0.000000 0.437500
vt 0.250000 0.437500
vt 0.250000 0.687500
vt 0.000000 0.687500
vt 0.500000 0.000000
vt 0.500000 0.062500
vt 1.000000 1.000000
vt 0.875000 1.000000
vt 0.875000 0.062500
vt 0.750000 1.000000
vt 0.625000 1.000000
vt 0.625000 0.062500
vt 0.500000 1.000000
vt 0.187500 0.812500
vt 0.187500 0.937500
vt 0.062500 0.937500
vt 0.062500 0.812500
s 0
f 1/1/1 5/2/1 7/3/1 3/4/1
f 4/5/2 3/6/2 7/7/2 8/8/2
f 8/9/3 7/10/3 5/11/3 6/12/3
f 6/13/4 2/14/4 4/15/4 8/16/4
f 2/17/5 1/18/5 3/6/5 4/5/5
f 6/12/6 5/11/6 1/18/6 2/17/6
f 9/10/3 10/19/3 12/20/3 11/21/3
f 11/21/6 12/20/6 16/22/6 15/11/6
f 15/11/5 16/22/5 14/23/5 13/24/5
f 13/24/2 14/23/2 10/25/2 9/18/2
f 11/26/4 15/27/4 13/28/4 9/29/4
f 16/27/1 12/28/1 10/29/1 14/26/1
