# Blender v2.76 (sub 0) OBJ File: 'torch_on_floor_node.blend'
# www.blender.org
o torch_Cube_Cube.001_Cube_Cube.001_Material.001
v 0.062500 0.062500 0.062500
v 0.062500 0.062500 -0.062500
v -0.062500 0.062500 -0.062500
v -0.062500 0.062500 0.062500
v -0.062500 -0.500000 0.062500
v 0.062500 -0.500000 0.062500
v 0.062500 -0.500000 -0.062500
v -0.062500 -0.500000 -0.062500
vt 0.562500 0.500000
vt 0.562500 0.625000
vt 0.437500 0.625000
vt 0.437500 0.500000
vt 0.437500 0.000000
vt 0.562500 0.000000
vt 0.562500 0.125000
vt 0.437500 0.125000
vn 0.000000 1.000000 0.000000
vn 0.000000 0.000000 -1.000000
vn 1.000000 0.000000 0.000000
s 1
f 1/1/1 2/2/1 3/3/1 4/4/1
f 5/5/1 6/6/1 7/7/1 8/8/1
f 1/2/2 6/6/2 5/5/2 4/3/2
f 2/3/3 1/2/3 6/6/3 7/5/3
f 3/2/2 2/3/2 7/5/2 8/6/2
f 4/3/3 5/5/3 8/6/3 3/2/3
