# Blender 5.0.1
# www.blender.org
o Cube
v 0.500000 0.500000 0.000000
v 0.125000 -0.500000 -0.500000
v 0.000000 0.500000 0.500000
v 0.500000 -0.500000 0.125000
v -0.500000 0.500000 0.000000
v -0.125000 -0.500000 -0.500000
v -0.500000 -0.500000 0.125000
v 0.000000 0.250000 -0.500000
v 0.000000 0.250000 0.500000
v 0.500000 0.250000 0.000000
v -0.125000 -0.500000 -0.125000
v -0.500000 -0.500000 -0.125000
v -0.125000 -0.500000 0.125000
v -0.125000 -0.500000 0.500000
v 0.125000 -0.500000 -0.125000
v 0.500000 -0.500000 -0.125000
v -0.500000 0.250000 0.000000
v 0.125000 -0.500000 0.500000
v 0.125000 -0.500000 0.125000
v 0.000000 0.500000 -0.500000
vn -0.0000 -0.0000 1.0000
vn -1.0000 -0.0000 -0.0000
vn -0.0000 -1.0000 -0.0000
vn -0.0000 0.1644 -0.9864
vn 0.9864 0.1644 -0.0000
vn -0.9864 0.1644 -0.0000
vn -0.0000 0.1644 0.9864
vt 0.000000 0.250000
vt 0.000000 0.000000
vt 1.000000 0.000000
vt 1.000000 0.250000
vt 0.375000 0.750000
vt 0.625000 0.750000
vt 0.625000 1.000000
vt 0.375000 1.000000
vt 1.000000 1.000000
vt 0.000000 1.000000
s 0
f 10/1/1 1/2/1 5/3/1 17/4/1
f 9/1/2 3/2/2 20/3/2 8/4/2
f 11/5/3 15/6/3 19/7/3 13/8/3
f 12/9/4 17/4/4 10/1/4 16/10/4
f 2/9/5 8/4/5 9/1/5 18/10/5
f 14/10/6 9/1/6 8/4/6 6/9/6
f 4/10/7 10/1/7 17/4/7 7/9/7
